<?xml version="1.0" encoding="UTF-8"?>
<svg width="600" height="400" viewBox="0 0 600 400" fill="none" xmlns="http://www.w3.org/2000/svg">
  <!-- 定义渐变 -->
  <defs>
    <linearGradient id="robotGradient" x1="0%" y1="0%" x2="100%" y2="100%">
      <stop offset="0%" stop-color="#4a9eff" />
      <stop offset="100%" stop-color="#2b7ae5" />
    </linearGradient>
    <linearGradient id="bubble1Gradient" x1="0%" y1="0%" x2="100%" y2="100%">
      <stop offset="0%" stop-color="#4facff" />
      <stop offset="100%" stop-color="#2c88da" />
    </linearGradient>
    <linearGradient id="bubble2Gradient" x1="0%" y1="0%" x2="100%" y2="100%">
      <stop offset="0%" stop-color="#7ed56f" />
      <stop offset="100%" stop-color="#59b547" />
    </linearGradient>
    <linearGradient id="bubble3Gradient" x1="0%" y1="0%" x2="100%" y2="100%">
      <stop offset="0%" stop-color="#ffb74d" />
      <stop offset="100%" stop-color="#e69728" />
    </linearGradient>
    <filter id="dropShadow" x="-20%" y="-20%" width="140%" height="140%">
      <feGaussianBlur in="SourceAlpha" stdDeviation="5" />
      <feOffset dx="2" dy="4" result="offsetblur" />
      <feComponentTransfer>
        <feFuncA type="linear" slope="0.2" />
      </feComponentTransfer>
      <feMerge>
        <feMergeNode />
        <feMergeNode in="SourceGraphic" />
      </feMerge>
    </filter>
    <radialGradient id="bgGradient" cx="50%" cy="50%" r="50%" fx="50%" fy="50%">
      <stop offset="0%" stop-color="#f5faff" />
      <stop offset="100%" stop-color="#e1f0ff" />
    </radialGradient>
  </defs>
  
  <!-- 背景圆圈 - 使用渐变色 -->
  <circle cx="300" cy="200" r="180" fill="url(#bgGradient)" />
  <circle cx="300" cy="200" r="150" fill="#f0f7ff" opacity="0.7" />
  
  <!-- 数字雨效果 -->
  <text x="120" y="80" font-family="'Courier New', monospace" font-size="12" fill="#c5d8f0">10110101</text>
  <text x="220" y="100" font-family="'Courier New', monospace" font-size="12" fill="#c5d8f0">01101001</text>
  <text x="420" y="90" font-family="'Courier New', monospace" font-size="12" fill="#c5d8f0">11001101</text>
  <text x="150" y="300" font-family="'Courier New', monospace" font-size="12" fill="#c5d8f0">10010111</text>
  <text x="320" y="320" font-family="'Courier New', monospace" font-size="12" fill="#c5d8f0">00111010</text>
  <text x="450" y="310" font-family="'Courier New', monospace" font-size="12" fill="#c5d8f0">11010111</text>
  <text x="180" y="130" font-family="'Courier New', monospace" font-size="12" fill="#c5d8f0">10100110</text>
  <text x="380" y="120" font-family="'Courier New', monospace" font-size="12" fill="#c5d8f0">01011010</text>
  <text x="400" y="280" font-family="'Courier New', monospace" font-size="12" fill="#c5d8f0">11100101</text>
  <text x="250" y="260" font-family="'Courier New', monospace" font-size="12" fill="#c5d8f0">00101101</text>
  
  <!-- 机器人头部 - 添加渐变和阴影 -->
  <g filter="url(#dropShadow)">
    <rect x="250" y="120" width="100" height="120" rx="25" fill="url(#robotGradient)" />
    
    <!-- 机器人面板装饰 -->
    <rect x="270" y="210" width="60" height="10" rx="5" fill="rgba(255,255,255,0.15)" />
    <circle cx="300" cy="205" r="3" fill="rgba(255,255,255,0.2)" />
    
    <!-- 机器人眼睛 - 更加精致 -->
    <circle cx="280" cy="160" r="14" fill="white" />
    <circle cx="320" cy="160" r="14" fill="white" />
    
    <!-- 眼球 -->
    <circle cx="280" cy="160" r="7" fill="#333" />
    <circle cx="320" cy="160" r="7" fill="#333" />
    
    <!-- 眼球高光 -->
    <circle cx="283" cy="157" r="2" fill="white" />
    <circle cx="323" cy="157" r="2" fill="white" />
    
    <!-- 机器人嘴巴 - 圆角更大 -->
    <rect x="270" y="185" width="60" height="10" rx="5" fill="white" />
    
    <!-- 天线 - 更平滑的线条 -->
    <line x1="285" y1="120" x2="275" y2="95" stroke="url(#robotGradient)" stroke-width="5" stroke-linecap="round" />
    <line x1="315" y1="120" x2="325" y2="95" stroke="url(#robotGradient)" stroke-width="5" stroke-linecap="round" />
    <circle cx="275" cy="90" r="8" fill="url(#robotGradient)" />
    <circle cx="325" cy="90" r="8" fill="url(#robotGradient)" />
    
    <!-- 天线光晕 -->
    <circle cx="275" cy="90" r="12" fill="#4a9eff" opacity="0.3" />
    <circle cx="325" cy="90" r="12" fill="#4a9eff" opacity="0.3" />
  </g>
  
  <!-- 聊天气泡 - 使用渐变色和阴影 -->
  <g filter="url(#dropShadow)">
    <!-- 左侧气泡 -->
    <path d="M150 180C150 171.716 156.716 165 165 165H215C223.284 165 230 171.716 230 180V210C230 218.284 223.284 225 215 225H165C156.716 225 150 218.284 150 210V180Z" fill="url(#bubble1Gradient)" />
    
    <!-- 文本装饰 -->
    <circle cx="170" cy="180" r="4" fill="white" />
    <circle cx="190" cy="180" r="4" fill="white" />
    <circle cx="210" cy="180" r="4" fill="white" />
    <rect x="170" y="195" width="40" height="4" rx="2" fill="white" />
    <rect x="170" y="205" width="30" height="4" rx="2" fill="white" />
  </g>
  
  <g filter="url(#dropShadow)">
    <!-- 右上气泡 -->
    <path d="M380 150C380 141.716 386.716 135 395 135H445C453.284 135 460 141.716 460 150V180C460 188.284 453.284 195 445 195H395C386.716 195 380 188.284 380 180V150Z" fill="url(#bubble2Gradient)" />
    <path d="M380 165L365 185L380 185L380 165Z" fill="url(#bubble2Gradient)" />
  
    <!-- 文本装饰 -->
    <circle cx="400" cy="150" r="4" fill="white" />
    <circle cx="420" cy="150" r="4" fill="white" />
    <circle cx="440" cy="150" r="4" fill="white" />
    <rect x="400" y="165" width="40" height="4" rx="2" fill="white" />
    <rect x="400" y="175" width="30" height="4" rx="2" fill="white" />
  </g>
  
  <g filter="url(#dropShadow)">
    <!-- 右下气泡 -->
    <path d="M390 240C390 231.716 396.716 225 405 225H455C463.284 225 470 231.716 470 240V270C470 278.284 463.284 285 455 285H405C396.716 285 390 278.284 390 270V240Z" fill="url(#bubble3Gradient)" />
    <path d="M390 255L375 275L390 275L390 255Z" fill="url(#bubble3Gradient)" />
  
    <!-- 文本装饰 -->
    <circle cx="410" cy="245" r="4" fill="white" />
    <circle cx="430" cy="245" r="4" fill="white" />
    <circle cx="450" cy="245" r="4" fill="white" />
    <rect x="410" y="260" width="40" height="4" rx="2" fill="white" />
    <rect x="410" y="270" width="30" height="4" rx="2" fill="white" />
  </g>
  
  <!-- 装饰元素 - 小圆点 -->
  <circle cx="200" cy="120" r="3" fill="#4a9eff" opacity="0.5" />
  <circle cx="210" cy="135" r="2" fill="#4a9eff" opacity="0.5" />
  <circle cx="190" cy="140" r="1.5" fill="#4a9eff" opacity="0.5" />
  
  <circle cx="400" cy="120" r="3" fill="#7ed56f" opacity="0.5" />
  <circle cx="410" cy="135" r="2" fill="#7ed56f" opacity="0.5" />
  <circle cx="390" cy="140" r="1.5" fill="#7ed56f" opacity="0.5" />
  
  <circle cx="380" cy="300" r="3" fill="#ffb74d" opacity="0.5" />
  <circle cx="390" cy="315" r="2" fill="#ffb74d" opacity="0.5" />
  <circle cx="370" cy="310" r="1.5" fill="#ffb74d" opacity="0.5" />
</svg>
